<svg xmlns="http://www.w3.org/2000/svg" xmlns:xlink="http://www.w3.org/1999/xlink" width="500" zoomAndPan="magnify" viewBox="0 0 375 374.999991" height="500" preserveAspectRatio="xMidYMid meet" version="1.2"><defs><clipPath id="2ee353d88d"><path d="M 182 131.167969 L 186 131.167969 L 186 136 L 182 136 Z M 182 131.167969 "/></clipPath><clipPath id="eaedb27c93"><path d="M 125 131.167969 L 251 131.167969 L 251 172 L 125 172 Z M 125 131.167969 "/></clipPath></defs><g id="dfad445427"><rect x="0" width="375" y="0" height="374.999991" style="fill:#ffffff;fill-opacity:1;stroke:none;"/><rect x="0" width="375" y="0" height="374.999991" style="fill:#255360;fill-opacity:1;stroke:none;"/><g clip-rule="nonzero" clip-path="url(#2ee353d88d)"><path style=" stroke:none;fill-rule:nonzero;fill:#255360;fill-opacity:1;" d="M 184.457031 131.164062 L 182.878906 135.683594 L 184.3125 135.6875 L 185.898438 131.164062 L 184.457031 131.164062 "/></g><path style=" stroke:none;fill-rule:nonzero;fill:#f1b92e;fill-opacity:1;" d="M 139.691406 169.113281 C 139.691406 177.582031 152.515625 177.585938 152.515625 169.113281 C 152.515625 160.640625 139.691406 160.628906 139.691406 169.113281 "/><path style=" stroke:none;fill-rule:nonzero;fill:#f1b92e;fill-opacity:1;" d="M 214.222656 169.113281 C 214.222656 177.582031 227.046875 177.585938 227.046875 169.113281 C 227.046875 160.640625 214.222656 160.628906 214.222656 169.113281 "/><g clip-rule="nonzero" clip-path="url(#eaedb27c93)"><path style=" stroke:none;fill-rule:nonzero;fill:#f1b92e;fill-opacity:1;" d="M 249.679688 161.9375 C 243.917969 146.757812 246.527344 148.808594 226.757812 148.808594 C 215.089844 137.085938 214.542969 135.683594 210.851562 135.683594 L 191.738281 135.683594 L 189.816406 131.164062 L 182.007812 131.164062 L 180.195312 135.683594 C 172.183594 135.683594 174.046875 135.160156 163.226562 148.808594 C 163.019531 148.808594 162.847656 148.808594 162.699219 148.808594 C 162.257812 148.808594 162.066406 148.808594 162.03125 148.808594 C 160.382812 148.808594 155.097656 148.808594 140.144531 148.808594 C 133.890625 148.808594 128.828125 153.878906 128.828125 160.125 C 124.144531 162.097656 124.722656 162.371094 126.789062 166.917969 L 135.847656 166.917969 C 138.332031 155.300781 155.273438 156.21875 156.519531 167.980469 C 156.5625 168.339844 156.542969 168.148438 156.5625 168.433594 C 156.621094 169.390625 156.554688 170.324219 156.375 171.214844 L 210.363281 171.214844 C 210.175781 170.324219 210.117188 169.390625 210.175781 168.433594 C 210.195312 168.128906 210.175781 168.34375 210.210938 167.980469 C 211.464844 156.210938 228.40625 155.300781 230.890625 166.917969 L 250.8125 166.917969 L 250.8125 161.9375 L 249.679688 161.9375 "/></g><path style=" stroke:none;fill-rule:nonzero;fill:#255360;fill-opacity:1;" d="M 204.046875 141.59375 L 177.113281 141.59375 L 170.890625 149.570312 L 212.027344 149.570312 L 204.046875 141.59375 "/><g style="fill:#f1b92e;fill-opacity:1;"><g transform="translate(83.808123, 218.5569)"><path style="stroke:none" d="M 5.734375 0 L 0.375 -23.125 L 4.015625 -23.125 L 7.78125 -4.765625 L 8.03125 -3.296875 L 8.09375 -3.296875 L 8.3125 -4.765625 L 11.828125 -23.125 L 16.46875 -23.125 L 19.984375 -4.765625 L 20.234375 -3.296875 L 20.296875 -3.296875 L 20.546875 -4.765625 L 24.28125 -23.125 L 27.921875 -23.125 L 22.59375 0 L 17.921875 0 L 14.40625 -17.890625 L 14.1875 -19.484375 L 14.125 -19.484375 L 13.875 -17.890625 L 10.390625 0 Z M 5.734375 0 "/></g></g><g style="fill:#f1b92e;fill-opacity:1;"><g transform="translate(118.513577, 218.5569)"><path style="stroke:none" d="M 0.375 0 L 7.59375 -23.125 L 12.203125 -23.125 L 19.421875 0 L 15.71875 0 L 14.09375 -5.484375 L 5.703125 -5.484375 L 4.078125 0 Z M 6.53125 -8.4375 L 13.265625 -8.4375 L 10.328125 -18.359375 L 9.921875 -19.984375 L 9.859375 -19.984375 L 9.46875 -18.359375 Z M 6.53125 -8.4375 "/></g></g><g style="fill:#f1b92e;fill-opacity:1;"><g transform="translate(144.721884, 218.5569)"><path style="stroke:none" d="M 6.25 0 L 6.25 -20.078125 L 0.15625 -20.078125 L 0.15625 -23.125 L 15.90625 -23.125 L 15.90625 -20.078125 L 9.796875 -20.078125 L 9.796875 0 Z M 6.25 0 "/></g></g><g style="fill:#f1b92e;fill-opacity:1;"><g transform="translate(167.164055, 218.5569)"><path style="stroke:none" d="M 0.375 0 L 7.59375 -23.125 L 12.203125 -23.125 L 19.421875 0 L 15.71875 0 L 14.09375 -5.484375 L 5.703125 -5.484375 L 4.078125 0 Z M 6.53125 -8.4375 L 13.265625 -8.4375 L 10.328125 -18.359375 L 9.921875 -19.984375 L 9.859375 -19.984375 L 9.46875 -18.359375 Z M 6.53125 -8.4375 "/></g></g><g style="fill:#f1b92e;fill-opacity:1;"><g transform="translate(193.372362, 218.5569)"><path style="stroke:none" d="M 2.578125 0 L 2.578125 -23.125 L 6.5625 -23.125 L 15.15625 -7.3125 L 15.90625 -5.875 L 15.9375 -5.875 L 15.9375 -23.125 L 19.421875 -23.125 L 19.421875 0 L 15.4375 0 L 6.875 -15.8125 L 6.125 -17.25 L 6.09375 -17.25 L 6.09375 0 Z M 2.578125 0 "/></g></g><g style="fill:#f1b92e;fill-opacity:1;"><g transform="translate(221.790547, 218.5569)"><path style="stroke:none" d="M 0.375 0 L 7.59375 -23.125 L 12.203125 -23.125 L 19.421875 0 L 15.71875 0 L 14.09375 -5.484375 L 5.703125 -5.484375 L 4.078125 0 Z M 6.53125 -8.4375 L 13.265625 -8.4375 L 10.328125 -18.359375 L 9.921875 -19.984375 L 9.859375 -19.984375 L 9.46875 -18.359375 Z M 6.53125 -8.4375 "/></g></g><g style="fill:#f1b92e;fill-opacity:1;"><g transform="translate(247.998854, 218.5569)"><path style="stroke:none" d="M 2.578125 0 L 2.578125 -23.125 L 10.640625 -23.125 C 12.648438 -23.125 14.265625 -22.671875 15.484375 -21.765625 C 16.703125 -20.867188 17.3125 -19.425781 17.3125 -17.4375 C 17.3125 -16.226562 17.039062 -15.160156 16.5 -14.234375 C 15.957031 -13.316406 15.082031 -12.648438 13.875 -12.234375 L 13.875 -12.203125 C 15.269531 -11.890625 16.335938 -11.269531 17.078125 -10.34375 C 17.828125 -9.425781 18.203125 -8.195312 18.203125 -6.65625 C 18.203125 -4.5 17.628906 -2.847656 16.484375 -1.703125 C 15.347656 -0.566406 13.546875 0 11.078125 0 Z M 6.125 -3.046875 L 10.609375 -3.046875 C 13.285156 -3.046875 14.625 -4.289062 14.625 -6.78125 C 14.625 -8.09375 14.25 -9.023438 13.5 -9.578125 C 12.757812 -10.140625 11.722656 -10.421875 10.390625 -10.421875 L 6.125 -10.421875 Z M 6.125 -13.453125 L 10.234375 -13.453125 C 11.523438 -13.453125 12.457031 -13.75 13.03125 -14.34375 C 13.613281 -14.945312 13.90625 -15.78125 13.90625 -16.84375 C 13.90625 -17.851562 13.617188 -18.644531 13.046875 -19.21875 C 12.484375 -19.789062 11.554688 -20.078125 10.265625 -20.078125 L 6.125 -20.078125 Z M 6.125 -13.453125 "/></g></g><g style="fill:#f1b92e;fill-opacity:1;"><g transform="translate(274.051533, 218.5569)"><path style="stroke:none" d="M 2.578125 0 L 2.578125 -23.125 L 16.0625 -23.125 L 16.0625 -20.078125 L 6.125 -20.078125 L 6.125 -13.296875 L 14.9375 -13.296875 L 14.9375 -10.328125 L 6.125 -10.328125 L 6.125 -3.046875 L 16.1875 -3.046875 L 16.1875 0 Z M 2.578125 0 "/></g></g><g style="fill:#f1b92e;fill-opacity:1;"><g transform="translate(112.725909, 240.137387)"><path style="stroke:none" d="M 2.859375 0 L 0.1875 -11.5625 L 2 -11.5625 L 3.890625 -2.375 L 4.015625 -1.65625 L 4.046875 -1.65625 L 4.15625 -2.375 L 5.90625 -11.5625 L 8.234375 -11.5625 L 9.984375 -2.375 L 10.109375 -1.65625 L 10.140625 -1.65625 L 10.265625 -2.375 L 12.140625 -11.5625 L 13.953125 -11.5625 L 11.296875 0 L 8.96875 0 L 7.203125 -8.953125 L 7.09375 -9.734375 L 7.0625 -9.734375 L 6.9375 -8.953125 L 5.203125 0 Z M 2.859375 0 "/></g></g><g style="fill:#f1b92e;fill-opacity:1;"><g transform="translate(133.378465, 240.137387)"><path style="stroke:none" d="M 0.1875 0 L 3.796875 -11.5625 L 6.09375 -11.5625 L 9.71875 0 L 7.859375 0 L 7.046875 -2.734375 L 2.84375 -2.734375 L 2.03125 0 Z M 3.265625 -4.21875 L 6.625 -4.21875 L 5.171875 -9.1875 L 4.96875 -9.984375 L 4.9375 -9.984375 L 4.734375 -9.1875 Z M 3.265625 -4.21875 "/></g></g><g style="fill:#f1b92e;fill-opacity:1;"><g transform="translate(149.782448, 240.137387)"><path style="stroke:none" d="M 5.078125 0.21875 C 2.210938 0.21875 0.78125 -1.535156 0.78125 -5.046875 L 0.78125 -6.46875 C 0.78125 -8.257812 1.128906 -9.585938 1.828125 -10.453125 C 2.535156 -11.328125 3.617188 -11.765625 5.078125 -11.765625 C 6.054688 -11.765625 6.84375 -11.578125 7.4375 -11.203125 C 8.039062 -10.835938 8.476562 -10.347656 8.75 -9.734375 C 9.03125 -9.117188 9.171875 -8.441406 9.171875 -7.703125 L 9.171875 -7.65625 L 7.40625 -7.65625 L 7.40625 -7.703125 C 7.40625 -8.160156 7.328125 -8.578125 7.171875 -8.953125 C 7.023438 -9.335938 6.78125 -9.640625 6.4375 -9.859375 C 6.09375 -10.085938 5.632812 -10.203125 5.0625 -10.203125 C 4.257812 -10.203125 3.640625 -9.910156 3.203125 -9.328125 C 2.765625 -8.753906 2.546875 -7.847656 2.546875 -6.609375 L 2.546875 -4.921875 C 2.546875 -3.660156 2.765625 -2.75 3.203125 -2.1875 C 3.640625 -1.625 4.257812 -1.34375 5.0625 -1.34375 C 5.820312 -1.34375 6.410156 -1.554688 6.828125 -1.984375 C 7.253906 -2.421875 7.484375 -3.160156 7.515625 -4.203125 L 7.515625 -4.453125 L 5.03125 -4.453125 L 5.03125 -5.96875 L 9.203125 -5.96875 L 9.203125 -4.734375 C 9.203125 -3.753906 9.070312 -2.890625 8.8125 -2.140625 C 8.550781 -1.398438 8.117188 -0.820312 7.515625 -0.40625 C 6.910156 0.0078125 6.097656 0.21875 5.078125 0.21875 Z M 5.078125 0.21875 "/></g></g><g style="fill:#f1b92e;fill-opacity:1;"><g transform="translate(166.186431, 240.137387)"><path style="stroke:none" d="M 5.109375 0.21875 C 2.222656 0.21875 0.78125 -1.550781 0.78125 -5.09375 L 0.78125 -6.5 C 0.78125 -10.007812 2.21875 -11.765625 5.09375 -11.765625 C 7.976562 -11.765625 9.421875 -10.007812 9.421875 -6.5 L 9.421875 -5.09375 C 9.421875 -1.550781 7.984375 0.21875 5.109375 0.21875 Z M 2.546875 -5 C 2.546875 -3.738281 2.765625 -2.8125 3.203125 -2.21875 C 3.640625 -1.632812 4.273438 -1.34375 5.109375 -1.34375 C 5.929688 -1.34375 6.554688 -1.632812 6.984375 -2.21875 C 7.421875 -2.8125 7.640625 -3.738281 7.640625 -5 L 7.640625 -6.59375 C 7.640625 -7.832031 7.421875 -8.742188 6.984375 -9.328125 C 6.554688 -9.910156 5.929688 -10.203125 5.109375 -10.203125 C 4.273438 -10.203125 3.640625 -9.910156 3.203125 -9.328125 C 2.765625 -8.742188 2.546875 -7.832031 2.546875 -6.59375 Z M 2.546875 -5 "/></g></g><g style="fill:#f1b92e;fill-opacity:1;"><g transform="translate(182.870542, 240.137387)"><path style="stroke:none" d="M 1.296875 0 L 1.296875 -11.5625 L 3.28125 -11.5625 L 7.578125 -3.65625 L 7.953125 -2.9375 L 7.96875 -2.9375 L 7.96875 -11.5625 L 9.71875 -11.5625 L 9.71875 0 L 7.71875 0 L 3.4375 -7.90625 L 3.0625 -8.625 L 3.046875 -8.625 L 3.046875 0 Z M 1.296875 0 "/></g></g><g style="fill:#f1b92e;fill-opacity:1;"><g transform="translate(200.379475, 240.137387)"><path style="stroke:none" d=""/></g></g><g style="fill:#f1b92e;fill-opacity:1;"><g transform="translate(211.07201, 240.137387)"><path style="stroke:none" d="M 3.125 0 L 3.125 -10.03125 L 0.078125 -10.03125 L 0.078125 -11.5625 L 7.953125 -11.5625 L 7.953125 -10.03125 L 4.90625 -10.03125 L 4.90625 0 Z M 3.125 0 "/></g></g><g style="fill:#f1b92e;fill-opacity:1;"><g transform="translate(225.592936, 240.137387)"><path style="stroke:none" d="M 0.1875 0 L 3.796875 -11.5625 L 6.09375 -11.5625 L 9.71875 0 L 7.859375 0 L 7.046875 -2.734375 L 2.84375 -2.734375 L 2.03125 0 Z M 3.265625 -4.21875 L 6.625 -4.21875 L 5.171875 -9.1875 L 4.96875 -9.984375 L 4.9375 -9.984375 L 4.734375 -9.1875 Z M 3.265625 -4.21875 "/></g></g><g style="fill:#f1b92e;fill-opacity:1;"><g transform="translate(241.996919, 240.137387)"><path style="stroke:none" d="M 0.1875 0 L 3.328125 -5.984375 L 0.46875 -11.5625 L 2.46875 -11.5625 L 4.421875 -7.625 L 4.703125 -6.90625 L 4.734375 -6.90625 L 5.015625 -7.625 L 6.953125 -11.5625 L 8.96875 -11.5625 L 6.078125 -6 L 9.234375 0 L 7.203125 0 L 5.03125 -4.375 L 4.71875 -5.109375 L 4.703125 -5.109375 L 4.390625 -4.34375 L 2.203125 0 Z M 0.1875 0 "/></g></g><g style="fill:#f1b92e;fill-opacity:1;"><g transform="translate(257.902901, 240.137387)"><path style="stroke:none" d="M 1.296875 0 L 1.296875 -11.5625 L 3.0625 -11.5625 L 3.0625 0 Z M 1.296875 0 "/></g></g></g></svg>